<svg width="268" height="25" viewBox="0 0 268 25" fill="none" xmlns="http://www.w3.org/2000/svg">
<g style="mix-blend-mode:difference">
<path d="M39.7573 0.982006H42.6547V21.4246H54.727V24H39.7573V0.982006ZM62.1297 24.4507C60.52 24.4507 59.2001 24 58.1699 23.0986C57.1397 22.1757 56.6247 20.8236 56.6247 19.0423V7.58157H59.2001V18.3984C59.2001 19.5359 59.4898 20.4588 60.0693 21.167C60.6488 21.8538 61.5502 22.1972 62.7735 22.1972C64.2115 22.1972 65.3704 21.7894 66.2504 20.9739C67.1518 20.1583 67.6025 19.1067 67.6025 17.8189V7.58157H70.1779V24H67.6025V22.0362H67.5381C67.023 22.723 66.3147 23.3025 65.4133 23.7746C64.5119 24.2254 63.4174 24.4507 62.1297 24.4507ZM83.6733 13.1832C83.6733 11.9598 83.4694 11.0262 83.0616 10.3824C82.6539 9.71704 81.8598 9.38438 80.6794 9.38438C79.4131 9.38438 78.3937 9.79216 77.621 10.6077C76.8699 11.4233 76.4943 12.4749 76.4943 13.7626V24H73.9188V7.58157H76.4943V9.54534H76.5587C77.7605 7.93569 79.3487 7.13087 81.3232 7.13087C82.4822 7.13087 83.4158 7.36695 84.124 7.83911C84.8323 8.31128 85.3581 9.01952 85.7015 9.96385H85.7659C87.1394 8.0752 88.91 7.13087 91.0777 7.13087C92.7088 7.13087 93.9321 7.60303 94.7477 8.54736C95.5847 9.47023 96.0032 10.8009 96.0032 12.5393V24H93.4278V13.1832C93.4278 11.9598 93.2239 11.0262 92.8161 10.3824C92.4083 9.71704 91.6142 9.38438 90.4338 9.38438C89.1676 9.38438 88.1481 9.79216 87.3755 10.6077C86.6243 11.4233 86.2487 12.4749 86.2487 13.7626V24H83.6733V13.1832ZM104.143 24.4507C102.491 24.4507 101.171 24.0215 100.184 23.163C99.2177 22.3045 98.7349 21.1777 98.7349 19.7827C98.7349 18.5808 99.0139 17.6151 99.5719 16.8853C100.13 16.1556 100.903 15.5976 101.89 15.2113C102.877 14.825 104.165 14.4923 105.753 14.2133C106.826 14.0202 107.631 13.8377 108.167 13.666C108.725 13.4944 109.144 13.269 109.423 12.99C109.702 12.6895 109.841 12.2817 109.841 11.7667C109.841 10.157 108.704 9.35219 106.429 9.35219C105.399 9.35219 104.583 9.4595 103.982 9.67412C103.403 9.88874 102.984 10.2429 102.727 10.7365C102.469 11.2086 102.308 11.8525 102.244 12.6681H99.5397C99.6255 10.9726 100.237 9.62046 101.375 8.61175C102.512 7.60303 104.229 7.09868 106.526 7.09868C108.243 7.09868 109.638 7.51718 110.711 8.3542C111.805 9.19122 112.352 10.5433 112.352 12.4105V20.2978C112.352 20.9631 112.417 21.4568 112.546 21.7787C112.674 22.0792 112.889 22.2294 113.19 22.2294L113.576 22.1972V24C113.104 24.1073 112.685 24.161 112.32 24.161C111.569 24.161 110.99 23.9785 110.582 23.6137C110.196 23.2274 109.959 22.5513 109.874 21.5855H109.809C109.251 22.5084 108.5 23.2166 107.556 23.7103C106.611 24.2039 105.474 24.4507 104.143 24.4507ZM101.439 19.6539C101.439 20.491 101.675 21.1241 102.147 21.5533C102.619 21.9826 103.371 22.1972 104.401 22.1972C106.032 22.1972 107.341 21.8216 108.328 21.0704C109.337 20.2978 109.841 19.1603 109.841 17.658V15.0503C109.455 15.4796 108.167 15.9088 105.978 16.3381C104.326 16.6815 103.156 17.0892 102.469 17.5614C101.782 18.0336 101.439 18.7311 101.439 19.6539ZM123.792 0.982006H139.728V3.55745H126.69V10.8009H138.183V13.3763H126.69V21.4246H140.114V24H123.792V0.982006ZM142.832 0.982006H145.407V24H142.832V0.982006ZM156.266 24.4829C154.592 24.4829 153.154 24.1073 151.952 23.3561C150.75 22.605 149.838 21.5748 149.215 20.2656C148.593 18.935 148.282 17.4326 148.282 15.7586C148.282 14.0202 148.604 12.4964 149.248 11.1872C149.913 9.878 150.847 8.86929 152.048 8.16105C153.25 7.4528 154.656 7.09868 156.266 7.09868C157.832 7.09868 159.185 7.44207 160.322 8.12885C161.481 8.79417 162.361 9.7385 162.962 10.9618C163.563 12.1637 163.863 13.5695 163.863 15.1791C163.863 15.8659 163.853 16.2951 163.831 16.4668H150.986C151.029 18.055 151.501 19.4179 152.403 20.5553C153.304 21.6928 154.602 22.2616 156.298 22.2616C157.714 22.2616 158.809 21.9075 159.582 21.1992C160.354 20.491 160.837 19.7398 161.03 18.9457H163.638C163.187 20.5983 162.339 21.9396 161.095 22.9698C159.871 23.9785 158.262 24.4829 156.266 24.4829ZM161.127 14.2133C161.127 13.3119 160.923 12.4856 160.515 11.7345C160.107 10.9833 159.517 10.3931 158.745 9.96385C157.993 9.53461 157.124 9.31999 156.137 9.31999C154.72 9.31999 153.529 9.78143 152.564 10.7043C151.598 11.6057 151.072 12.7754 150.986 14.2133H161.127ZM173.744 24.4507C172.156 24.4507 170.761 24.0858 169.559 23.3561C168.357 22.6264 167.423 21.607 166.758 20.2978C166.114 18.9886 165.792 17.4863 165.792 15.7908C165.792 14.0953 166.114 12.5929 166.758 11.2838C167.423 9.97458 168.357 8.95514 169.559 8.22543C170.761 7.49572 172.156 7.13087 173.744 7.13087C175.075 7.13087 176.255 7.40987 177.285 7.96789C178.337 8.50444 179.174 9.25561 179.796 10.2214C180.44 11.1872 180.826 12.2817 180.955 13.5051H178.251C178.165 12.4105 177.757 11.4555 177.028 10.6399C176.319 9.80289 175.225 9.38438 173.744 9.38438C171.941 9.38438 170.611 10.0175 169.752 11.2838C168.915 12.5286 168.497 14.0309 168.497 15.7908C168.497 17.5507 168.915 19.0637 169.752 20.33C170.611 21.5748 171.941 22.1972 173.744 22.1972C175.246 22.1972 176.352 21.7787 177.06 20.9417C177.768 20.1046 178.165 19.1067 178.251 17.9477H180.955C180.891 19.1925 180.537 20.3085 179.893 21.2958C179.249 22.283 178.391 23.0557 177.317 23.6137C176.266 24.1717 175.075 24.4507 173.744 24.4507ZM188.6 24.161C187.269 24.161 186.25 23.839 185.542 23.1952C184.855 22.5299 184.511 21.328 184.511 19.5896V9.83508H182.097V7.58157H184.511V2.10876H187.087V7.58157H190.306V9.83508H187.087V19.7183C187.087 20.5768 187.216 21.1563 187.473 21.4568C187.731 21.7572 188.224 21.9075 188.954 21.9075C189.319 21.9075 189.77 21.8753 190.306 21.8109V24C189.684 24.1073 189.115 24.161 188.6 24.161ZM195.583 24H193.008V7.58157H195.583V10.8331H195.648C196.12 9.65265 196.71 8.74052 197.418 8.09666C198.148 7.4528 199.071 7.13087 200.187 7.13087C200.745 7.13087 201.249 7.16306 201.7 7.22745V9.80289C201.314 9.7385 200.959 9.70631 200.638 9.70631C199.135 9.70631 197.912 10.2321 196.968 11.2838C196.045 12.3354 195.583 13.6553 195.583 15.2435V24ZM203.854 7.58157H206.429V24H203.854V7.58157ZM203.596 1.30394H206.687V4.39446H203.596V1.30394ZM217.223 24.4507C215.635 24.4507 214.24 24.0858 213.038 23.3561C211.836 22.6264 210.903 21.607 210.238 20.2978C209.594 18.9886 209.272 17.4863 209.272 15.7908C209.272 14.0953 209.594 12.5929 210.238 11.2838C210.903 9.97458 211.836 8.95514 213.038 8.22543C214.24 7.49572 215.635 7.13087 217.223 7.13087C218.554 7.13087 219.734 7.40987 220.765 7.96789C221.816 8.50444 222.653 9.25561 223.276 10.2214C223.92 11.1872 224.306 12.2817 224.435 13.5051H221.73C221.645 12.4105 221.237 11.4555 220.507 10.6399C219.799 9.80289 218.704 9.38438 217.223 9.38438C215.421 9.38438 214.09 10.0175 213.232 11.2838C212.394 12.5286 211.976 14.0309 211.976 15.7908C211.976 17.5507 212.394 19.0637 213.232 20.33C214.09 21.5748 215.421 22.1972 217.223 22.1972C218.726 22.1972 219.831 21.7787 220.539 20.9417C221.248 20.1046 221.645 19.1067 221.73 17.9477H224.435C224.37 19.1925 224.016 20.3085 223.372 21.2958C222.728 22.283 221.87 23.0557 220.797 23.6137C219.745 24.1717 218.554 24.4507 217.223 24.4507ZM231.658 24.4507C230.005 24.4507 228.685 24.0215 227.698 23.163C226.732 22.3045 226.249 21.1777 226.249 19.7827C226.249 18.5808 226.528 17.6151 227.086 16.8853C227.644 16.1556 228.417 15.5976 229.404 15.2113C230.391 14.825 231.679 14.4923 233.267 14.2133C234.34 14.0202 235.145 13.8377 235.682 13.666C236.24 13.4944 236.658 13.269 236.937 12.99C237.216 12.6895 237.356 12.2817 237.356 11.7667C237.356 10.157 236.218 9.35219 233.943 9.35219C232.913 9.35219 232.098 9.4595 231.497 9.67412C230.917 9.88874 230.499 10.2429 230.241 10.7365C229.984 11.2086 229.823 11.8525 229.758 12.6681H227.054C227.14 10.9726 227.752 9.62046 228.889 8.61175C230.027 7.60303 231.744 7.09868 234.04 7.09868C235.757 7.09868 237.152 7.51718 238.225 8.3542C239.32 9.19122 239.867 10.5433 239.867 12.4105V20.2978C239.867 20.9631 239.931 21.4568 240.06 21.7787C240.189 22.0792 240.403 22.2294 240.704 22.2294L241.09 22.1972V24C240.618 24.1073 240.2 24.161 239.835 24.161C239.084 24.161 238.504 23.9785 238.096 23.6137C237.71 23.2274 237.474 22.5513 237.388 21.5855H237.324C236.766 22.5084 236.015 23.2166 235.07 23.7103C234.126 24.2039 232.988 24.4507 231.658 24.4507ZM228.954 19.6539C228.954 20.491 229.19 21.1241 229.662 21.5533C230.134 21.9826 230.885 22.1972 231.915 22.1972C233.546 22.1972 234.856 21.8216 235.843 21.0704C236.852 20.2978 237.356 19.1603 237.356 17.658V15.0503C236.97 15.4796 235.682 15.9088 233.493 16.3381C231.84 16.6815 230.67 17.0892 229.984 17.5614C229.297 18.0336 228.954 18.7311 228.954 19.6539ZM243.907 0.982006H246.482V24H243.907V0.982006ZM257.566 16.0483C256.149 16.0483 254.851 15.7157 253.67 15.0503C252.511 14.3636 251.589 13.43 250.902 12.2496C250.237 11.0477 249.904 9.71704 249.904 8.25762C249.904 6.79821 250.237 5.47829 250.902 4.29788C251.589 3.09601 252.511 2.16242 253.67 1.49709C254.851 0.81031 256.149 0.466919 257.566 0.466919C258.982 0.466919 260.27 0.81031 261.429 1.49709C262.609 2.16242 263.532 3.09601 264.198 4.29788C264.884 5.47829 265.228 6.79821 265.228 8.25762C265.228 9.71704 264.884 11.0477 264.198 12.2496C263.532 13.43 262.609 14.3636 261.429 15.0503C260.27 15.7157 258.982 16.0483 257.566 16.0483ZM251.32 8.25762C251.32 9.48096 251.589 10.597 252.125 11.6057C252.683 12.5929 253.434 13.3763 254.379 13.9558C255.344 14.5138 256.407 14.7928 257.566 14.7928C258.725 14.7928 259.776 14.5138 260.721 13.9558C261.686 13.3763 262.438 12.5929 262.974 11.6057C263.532 10.597 263.811 9.48096 263.811 8.25762C263.811 7.03429 263.532 5.929 262.974 4.94175C262.438 3.93303 261.686 3.14967 260.721 2.59166C259.776 2.01218 258.725 1.72245 257.566 1.72245C256.407 1.72245 255.344 2.01218 254.379 2.59166C253.434 3.14967 252.683 3.93303 252.125 4.94175C251.589 5.929 251.32 7.03429 251.32 8.25762ZM254.379 3.94376H257.823C258.832 3.94376 259.594 4.16911 260.109 4.61981C260.646 5.04905 260.914 5.67145 260.914 6.48701C260.914 7.64596 260.302 8.36493 259.079 8.64394V8.70833C259.723 8.81564 260.152 9.1161 260.367 9.60973C260.581 10.0819 260.742 10.715 260.849 11.5091C260.871 11.7452 260.903 11.9598 260.946 12.153C260.989 12.3247 261.043 12.4213 261.107 12.4427V12.5393H259.047C258.961 12.4534 258.896 12.1744 258.854 11.7023C258.811 11.0155 258.693 10.4789 258.499 10.0926C258.306 9.68485 257.888 9.48096 257.244 9.48096H256.407V12.5393H254.379V3.94376ZM257.308 7.83911C257.823 7.83911 258.231 7.764 258.532 7.61376C258.854 7.44207 259.014 7.12014 259.014 6.64797C259.014 6.21873 258.864 5.929 258.564 5.77876C258.263 5.62853 257.845 5.55341 257.308 5.55341H256.407V7.83911H257.308Z" fill="white"/>
<path d="M0 1L13.9551 1C13.9551 7.27991 8.86418 12.3708 2.58426 12.3708H0L0 1Z" fill="white"/>
<path d="M28.1685 24L14.2134 24C14.2134 17.7201 19.3043 12.6292 25.5842 12.6292L28.1685 12.6292L28.1685 24Z" fill="white"/>
<path d="M28.1685 1L14.2134 1C14.2134 7.27991 19.3043 12.3708 25.5842 12.3708H28.1685L28.1685 1Z" fill="white"/>
<path d="M0 24L13.9551 24C13.9551 17.7201 8.86418 12.6292 2.58426 12.6292L-9.94066e-07 12.6292L0 24Z" fill="white"/>
</g>
</svg>
